<svg width="24" height="24" viewBox="0 0 24 24" fill="none" xmlns="http://www.w3.org/2000/svg">
<path d="M17.755 14C18.3514 14.0005 18.9232 14.2378 19.3447 14.6597C19.7663 15.0816 20.003 15.6536 20.003 16.25V16.825C20.003 17.719 19.683 18.584 19.103 19.263C17.533 21.096 15.146 22.001 12 22.001C8.85403 22.001 6.46803 21.096 4.90203 19.261C4.32264 18.5823 4.00424 17.7193 4.00403 16.827V16.249C4.00429 15.6526 4.24133 15.0807 4.66304 14.659C5.08475 14.2373 5.65664 14.0003 6.25303 14H17.755ZM17.755 15.5H6.25203C6.05312 15.5 5.86235 15.579 5.7217 15.7197C5.58105 15.8603 5.50203 16.0511 5.50203 16.25V16.827C5.50203 17.362 5.69403 17.88 6.04203 18.287C7.29503 19.756 9.26203 20.501 11.999 20.501C14.738 20.501 16.705 19.756 17.962 18.288C18.3107 17.8803 18.5022 17.3614 18.502 16.825V16.249C18.5018 16.0506 18.4229 15.8604 18.2827 15.72C18.1425 15.5796 17.9534 15.5005 17.755 15.5ZM12 2.005C12.6566 2.005 13.3068 2.13433 13.9134 2.3856C14.5201 2.63687 15.0713 3.00517 15.5356 3.46946C15.9999 3.93376 16.3682 4.48495 16.6194 5.09158C16.8707 5.69821 17 6.34839 17 7.005C17 7.66161 16.8707 8.31179 16.6194 8.91841C16.3682 9.52504 15.9999 10.0762 15.5356 10.5405C15.0713 11.0048 14.5201 11.3731 13.9134 11.6244C13.3068 11.8757 12.6566 12.005 12 12.005C10.6739 12.005 9.40218 11.4782 8.46449 10.5405C7.52681 9.60285 7.00003 8.33108 7.00003 7.005C7.00003 5.67891 7.52681 4.40715 8.46449 3.46946C9.40218 2.53178 10.6739 2.005 12 2.005ZM12 3.505C11.5404 3.505 11.0853 3.59553 10.6606 3.77142C10.236 3.94731 9.85016 4.20512 9.52515 4.53012C9.20015 4.85513 8.94234 5.24097 8.76645 5.66561C8.59056 6.09024 8.50003 6.54537 8.50003 7.005C8.50003 7.46462 8.59056 7.91975 8.76645 8.34439C8.94234 8.76903 9.20015 9.15487 9.52515 9.47987C9.85016 9.80488 10.236 10.0627 10.6606 10.2386C11.0853 10.4145 11.5404 10.505 12 10.505C12.9283 10.505 13.8185 10.1362 14.4749 9.47987C15.1313 8.82349 15.5 7.93326 15.5 7.005C15.5 6.07674 15.1313 5.1865 14.4749 4.53012C13.8185 3.87375 12.9283 3.505 12 3.505Z" fill="#072761"/>
</svg>
