<svg width="20" height="20" viewBox="0 0 20 20" fill="none" xmlns="http://www.w3.org/2000/svg">
<path d="M9.99992 10C9.08325 10 8.33325 9.25 8.33325 8.33333C8.33325 7.41666 9.08325 6.66666 9.99992 6.66666C10.9166 6.66666 11.6666 7.41666 11.6666 8.33333C11.6666 9.25 10.9166 10 9.99992 10ZM14.9999 8.5C14.9999 5.475 12.7916 3.33333 9.99992 3.33333C7.20825 3.33333 4.99992 5.475 4.99992 8.5C4.99992 10.45 6.62492 13.0333 9.99992 16.1167C13.3749 13.0333 14.9999 10.45 14.9999 8.5ZM9.99992 1.66666C13.4999 1.66666 16.6666 4.35 16.6666 8.5C16.6666 11.2667 14.4416 14.5417 9.99992 18.3333C5.55825 14.5417 3.33325 11.2667 3.33325 8.5C3.33325 4.35 6.49992 1.66666 9.99992 1.66666Z" fill="black" fill-opacity="0.8"/>
</svg>
