<svg width="24" height="24" viewBox="0 0 24 24" fill="none" xmlns="http://www.w3.org/2000/svg">
<path fill-rule="evenodd" clip-rule="evenodd" d="M12.5931 23.258L12.582 23.26L12.511 23.295L12.491 23.299L12.477 23.295L12.406 23.26C12.3954 23.2567 12.3874 23.2583 12.382 23.265L12.378 23.275L12.361 23.703L12.366 23.723L12.376 23.736L12.48 23.81L12.495 23.814L12.507 23.81L12.611 23.736L12.623 23.72L12.627 23.703L12.61 23.276C12.6074 23.2653 12.6017 23.2593 12.5931 23.258ZM12.858 23.145L12.845 23.147L12.66 23.24L12.65 23.25L12.647 23.261L12.665 23.691L12.67 23.703L12.6781 23.71L12.879 23.803C12.8917 23.8063 12.9014 23.8037 12.908 23.795L12.912 23.781L12.878 23.167C12.8747 23.155 12.868 23.1477 12.858 23.145ZM12.143 23.147C12.1386 23.1443 12.1334 23.1435 12.1283 23.1446C12.1233 23.1457 12.1189 23.1487 12.116 23.153L12.11 23.167L12.076 23.781C12.0767 23.793 12.0824 23.801 12.0931 23.805L12.108 23.803L12.309 23.71L12.319 23.702L12.323 23.691L12.34 23.261L12.337 23.249L12.327 23.239L12.143 23.147Z" fill="#072761"/>
<path fill-rule="evenodd" clip-rule="evenodd" d="M10.5 2C9.1446 2.00012 7.80887 2.32436 6.60427 2.94569C5.39966 3.56702 4.3611 4.46742 3.57525 5.57175C2.78939 6.67609 2.27902 7.95235 2.08672 9.29404C1.89442 10.6357 2.02576 12.004 2.46979 13.2846C2.91382 14.5652 3.65766 15.7211 4.63925 16.6557C5.62084 17.5904 6.81171 18.2768 8.11252 18.6576C9.41333 19.0384 10.7864 19.1026 12.117 18.8449C13.4477 18.5872 14.6975 18.015 15.762 17.176L19.414 20.828C19.6026 21.0102 19.8552 21.111 20.1174 21.1087C20.3796 21.1064 20.6304 21.0012 20.8158 20.8158C21.0012 20.6304 21.1064 20.3796 21.1087 20.1174C21.111 19.8552 21.0102 19.6026 20.828 19.414L17.176 15.762C18.164 14.5086 18.7792 13.0024 18.9511 11.4157C19.123 9.82905 18.8448 8.22602 18.1482 6.79009C17.4517 5.35417 16.3649 4.14336 15.0123 3.29623C13.6597 2.44911 12.096 1.99989 10.5 2ZM4.00001 10.5C4.00001 8.77609 4.68483 7.12279 5.90382 5.90381C7.1228 4.68482 8.7761 4 10.5 4C12.2239 4 13.8772 4.68482 15.0962 5.90381C16.3152 7.12279 17 8.77609 17 10.5C17 12.2239 16.3152 13.8772 15.0962 15.0962C13.8772 16.3152 12.2239 17 10.5 17C8.7761 17 7.1228 16.3152 5.90382 15.0962C4.68483 13.8772 4.00001 12.2239 4.00001 10.5Z" fill="#072761"/>
</svg>
