<svg width="25" height="25" viewBox="0 0 25 25" fill="none" xmlns="http://www.w3.org/2000/svg">
<g clip-path="url(#clip0_44478_253)">
<path d="M12.5041 0C7.28545 0 5.75919 0.00538575 5.46252 0.0299999C4.39157 0.119046 3.72516 0.287717 2.99913 0.649276C2.43963 0.927194 1.99836 1.24933 1.56286 1.70091C0.76975 2.52444 0.28907 3.5376 0.115061 4.74194C0.0304653 5.3266 0.00585092 5.44584 0.000852494 8.43225C-0.00106562 9.42772 0.000852494 10.7378 0.000852494 12.4951C0.000852494 17.7109 0.00661624 19.236 0.0316178 19.5322C0.118141 20.5746 0.281567 21.2304 0.627659 21.9478C1.28908 23.321 2.55229 24.3519 4.04048 24.7365C4.55577 24.8692 5.12489 24.9423 5.85552 24.9769C6.16508 24.9904 9.32025 25 12.4773 25C15.6345 25 18.7916 24.9962 19.0934 24.9808C19.9394 24.941 20.4307 24.875 20.9738 24.7346C22.4716 24.348 23.7118 23.3325 24.3867 21.9401C24.726 21.2401 24.8981 20.5592 24.976 19.5713C24.9929 19.3559 25 15.9215 25 12.4918C25 9.06153 24.9923 5.63355 24.9754 5.41814C24.8966 4.41422 24.7245 3.73916 24.3742 3.02564C24.0867 2.44155 23.7675 2.00535 23.3042 1.55937C22.4772 0.769294 21.4659 0.288482 20.2607 0.114624C19.6768 0.030189 19.5604 0.0051874 16.5725 0H12.5041Z" fill="#072761"/>
<path d="M12.5052 3.20996C9.98077 3.20996 9.66396 3.22099 8.67247 3.26608C7.68292 3.31136 7.00747 3.4679 6.41645 3.69761C5.8051 3.93484 5.2865 4.25218 4.76985 4.76865C4.25281 5.28493 3.93522 5.80313 3.69703 6.41384C3.46659 7.00462 3.30973 7.67975 3.26519 8.66819C3.22085 9.65893 3.20923 9.9757 3.20923 12.4982C3.20923 15.0208 3.22046 15.3364 3.26538 16.3271C3.3109 17.316 3.46756 17.9909 3.69722 18.5815C3.93483 19.1924 4.25242 19.7106 4.76927 20.2269C5.28574 20.7435 5.80433 21.0617 6.41529 21.2989C7.00669 21.5286 7.68235 21.6851 8.6717 21.7304C9.66319 21.7755 9.9798 21.7865 12.504 21.7865C15.0286 21.7865 15.3445 21.7755 16.336 21.7304C17.3255 21.6851 18.0017 21.5286 18.5931 21.2989C19.2043 21.0617 19.7221 20.7435 20.2386 20.2269C20.7556 19.7106 21.0732 19.1924 21.3114 18.5817C21.5399 17.9909 21.6968 17.3158 21.7433 16.3273C21.7878 15.3366 21.7994 15.0208 21.7994 12.4982C21.7994 9.97569 21.7878 9.65913 21.7433 8.66837C21.6968 7.67956 21.5399 7.00462 21.3114 6.41404C21.0732 5.80313 20.7556 5.28492 20.2386 4.76865C19.7215 4.25199 19.2045 3.93464 18.5926 3.6976C18 3.4679 17.3242 3.31136 16.3346 3.26608C15.3431 3.22099 15.0275 3.20996 12.5023 3.20996H12.5052ZM11.6713 4.88379C11.9188 4.8834 12.195 4.88379 12.5052 4.88379C14.987 4.88379 15.2812 4.89269 16.2612 4.9372C17.1675 4.97861 17.6594 5.12992 17.987 5.25706C18.4208 5.42541 18.7301 5.62666 19.0552 5.95174C19.3805 6.27684 19.5819 6.58645 19.7508 7.0199C19.878 7.34692 20.0296 7.83843 20.0709 8.74404C20.1154 9.72317 20.1251 10.0173 20.1251 12.4961C20.1251 14.9749 20.1154 15.2691 20.0709 16.2482C20.0294 17.1538 19.878 17.6453 19.7508 17.9723C19.5823 18.4058 19.3805 18.7144 19.0552 19.0393C18.7299 19.3644 18.421 19.5657 17.987 19.734C17.6598 19.8617 17.1675 20.0127 16.2612 20.0541C15.2814 20.0986 14.987 20.1083 12.5052 20.1083C10.0232 20.1083 9.72903 20.0986 8.74916 20.0541C7.84288 20.0123 7.35102 19.861 7.02316 19.7338C6.58938 19.5655 6.27954 19.3642 5.95421 19.0391C5.62888 18.714 5.42749 18.4052 5.25862 17.9716C5.13139 17.6445 4.97977 17.153 4.93852 16.2474C4.89398 15.2683 4.88507 14.9742 4.88507 12.4938C4.88507 10.0134 4.89398 9.72085 4.93852 8.74172C4.97997 7.8361 5.13139 7.3446 5.25862 7.01719C5.42709 6.58374 5.62888 6.27413 5.95421 5.94904C6.27954 5.62395 6.58938 5.4227 7.02316 5.25397C7.35082 5.12625 7.84288 4.97532 8.74916 4.93371C9.60664 4.89501 9.93894 4.8834 11.6713 4.88146L11.6713 4.88379ZM17.4669 6.42603C16.8511 6.42603 16.3515 6.9247 16.3515 7.54023C16.3515 8.15559 16.8511 8.65483 17.4669 8.65483C18.0827 8.65483 18.5823 8.15559 18.5823 7.54023C18.5823 6.92489 18.0827 6.42565 17.4669 6.42565L17.4669 6.42603ZM12.5052 7.72832C9.86903 7.72832 7.73173 9.86405 7.73173 12.4982C7.73173 15.1324 9.86903 17.2672 12.5052 17.2672C15.1413 17.2672 17.2779 15.1324 17.2779 12.4982C17.2779 9.86405 15.1412 7.72832 12.505 7.72832H12.5052ZM12.5052 9.40215C14.2163 9.40215 15.6036 10.7882 15.6036 12.4982C15.6036 14.2081 14.2163 15.5943 12.5052 15.5943C10.7939 15.5943 9.4068 14.2081 9.4068 12.4982C9.4068 10.7882 10.7939 9.40215 12.5052 9.40215Z" fill="white"/>
</g>
<defs>
<clipPath id="clip0_44478_253">
<rect width="25" height="25" fill="white"/>
</clipPath>
</defs>
</svg>
