<svg width="25" height="25" viewBox="0 0 25 25" fill="none" xmlns="http://www.w3.org/2000/svg">
<g clip-path="url(#clip0_44478_275)">
<path d="M12.5097 25.0195C19.4187 25.0195 25.0195 19.4187 25.0195 12.5097C25.0195 5.6008 19.4187 0 12.5097 0C5.6008 0 0 5.6008 0 12.5097C0 19.4187 5.6008 25.0195 12.5097 25.0195Z" fill="#072761"/>
<path fill-rule="evenodd" clip-rule="evenodd" d="M5.65078 12.3734C9.29458 10.7756 11.7303 9.74284 12.9579 9.23622C16.4263 7.79428 17.1473 7.54097 17.6149 7.52148C17.7124 7.52148 17.9462 7.54097 18.1021 7.65788C18.219 7.75531 18.2579 7.89171 18.2774 7.98914C18.2969 8.08657 18.3164 8.30091 18.2969 8.47628C18.1021 10.4443 17.3032 15.2573 16.8745 17.4591C16.6991 18.3944 16.3484 18.7062 16.0171 18.7452C15.2961 18.8036 14.7311 18.258 14.0296 17.8099C12.9384 17.0889 12.3148 16.6407 11.2431 15.9393C10.0155 15.1209 10.8145 14.6727 11.5159 13.9517C11.6913 13.7569 14.9064 10.8535 14.9649 10.5807C14.9649 10.5417 14.9844 10.4248 14.9064 10.3664C14.8285 10.3079 14.7311 10.3274 14.6531 10.3469C14.5362 10.3664 12.7825 11.5355 9.37252 13.8348C8.8659 14.1856 8.41773 14.3414 8.00853 14.3414C7.56036 14.3414 6.703 14.0881 6.05998 13.8738C5.28055 13.6205 4.65701 13.4841 4.71547 13.0554C4.75444 12.841 5.06621 12.6072 5.65078 12.3734Z" fill="white"/>
</g>
<defs>
<clipPath id="clip0_44478_275">
<rect width="25" height="25" fill="white"/>
</clipPath>
</defs>
</svg>
