<svg width="25" height="25" viewBox="0 0 25 25" fill="none" xmlns="http://www.w3.org/2000/svg">
<g clip-path="url(#clip0_44478_257)">
<path d="M12.5003 25.0006C19.404 25.0006 25.0006 19.404 25.0006 12.5003C25.0006 5.59658 19.404 0 12.5003 0C5.59658 0 0 5.59658 0 12.5003C0 19.404 5.59658 25.0006 12.5003 25.0006Z" fill="#072761"/>
<path d="M10.7608 10.3935V9.71123C10.5269 9.67925 10.2892 9.65918 10.0466 9.65918C7.12435 9.65918 4.74707 12.0365 4.74707 14.9587C4.74707 16.7515 5.64317 18.338 7.00959 19.2975C6.12728 18.3506 5.58611 17.082 5.58611 15.6892C5.58611 12.809 7.89629 10.46 10.7608 10.3929V10.3935Z" fill="#25F4EE"/>
<path d="M10.8856 18.1103C12.1893 18.1103 13.2528 17.0731 13.3011 15.7813L13.3055 4.24227H15.4138C15.3699 4.00523 15.3461 3.7613 15.3461 3.51172H12.4665L12.4621 15.0507C12.4138 16.3431 11.3503 17.3797 10.0466 17.3797C9.64146 17.3797 9.25956 17.2781 8.92407 17.1019C9.36429 17.7114 10.0785 18.1109 10.8862 18.1109L10.8856 18.1103Z" fill="#25F4EE"/>
<path d="M19.3518 8.15857V7.51706C18.5479 7.51706 17.7985 7.27814 17.1702 6.86865C17.7295 7.51079 18.4896 7.9742 19.3518 8.15857Z" fill="#25F4EE"/>
<path d="M17.1703 6.86793C16.5576 6.16434 16.1851 5.24566 16.1851 4.2417H15.4138C15.617 5.33847 16.2679 6.27973 17.1703 6.86793Z" fill="#FE2C55"/>
<path d="M10.0465 12.5387C8.71209 12.5387 7.62598 13.6242 7.62598 14.9592C7.62598 15.8886 8.15336 16.6962 8.92342 17.1013C8.63621 16.7038 8.46502 16.2165 8.46502 15.6898C8.46502 14.3553 9.55113 13.2692 10.8856 13.2692C11.1345 13.2692 11.3734 13.3106 11.5998 13.3808V10.4417C11.3659 10.4097 11.1282 10.3896 10.8856 10.3896C10.8435 10.3896 10.8022 10.3922 10.7601 10.3928V12.6503C10.5344 12.5794 10.2949 12.5387 10.0459 12.5387H10.0465Z" fill="#FE2C55"/>
<path d="M19.3518 8.1582V10.3963C17.8587 10.3963 16.4754 9.91843 15.346 9.10824V14.9596C15.346 17.8818 12.9687 20.2591 10.0465 20.2591C8.91711 20.2591 7.86988 19.9029 7.00952 19.2984C7.97774 20.3374 9.3567 20.9896 10.8862 20.9896C13.8084 20.9896 16.1857 18.6123 16.1857 15.6901V9.83879C17.315 10.6496 18.6984 11.1268 20.1915 11.1268V8.24725C19.9036 8.24725 19.6227 8.21589 19.3524 8.1582H19.3518Z" fill="#FE2C55"/>
<path d="M15.3461 14.9592V9.10788C16.4755 9.9187 17.8589 10.3959 19.352 10.3959V8.15785C18.4897 7.97348 17.7297 7.51007 17.1703 6.86793C16.2679 6.27973 15.617 5.33847 15.4139 4.2417H13.3056L13.3012 15.7807C13.2529 17.0731 12.1894 18.1097 10.8857 18.1097C10.078 18.1097 9.36374 17.7109 8.92353 17.1007C8.15284 16.695 7.62609 15.8879 7.62609 14.9586C7.62609 13.6241 8.7122 12.538 10.0466 12.538C10.2956 12.538 10.5345 12.5794 10.7609 12.6497V10.3921C7.89636 10.4592 5.58618 12.8083 5.58618 15.6885C5.58618 17.0819 6.12736 18.3499 7.00966 19.2968C7.87065 19.9013 8.91726 20.2575 10.0466 20.2575C12.9689 20.2575 15.3461 17.8802 15.3461 14.958V14.9592Z" fill="white"/>
</g>
<defs>
<clipPath id="clip0_44478_257">
<rect width="25" height="25" fill="white"/>
</clipPath>
</defs>
</svg>
