<svg width="25" height="25" viewBox="0 0 25 25" fill="none" xmlns="http://www.w3.org/2000/svg">
<g clip-path="url(#clip0_44478_280)">
<path d="M21.25 0H3.75C1.67893 0 0 1.67893 0 3.75V21.25C0 23.3211 1.67893 25 3.75 25H21.25C23.3211 25 25 23.3211 25 21.25V3.75C25 1.67893 23.3211 0 21.25 0Z" fill="#072761"/>
<path d="M13.1348 9.08185C13.3354 9.07504 13.5353 9.10954 13.722 9.1832C13.9087 9.25686 14.0783 9.36811 14.2202 9.51005C14.3622 9.65198 14.4734 9.82158 14.5471 10.0083C14.6207 10.195 14.6552 10.3949 14.6484 10.5955M12.793 7.76349C13.216 7.76302 13.6347 7.84844 14.0237 8.01457C14.4127 8.18069 14.7639 8.42407 15.0561 8.72995C15.3483 9.03583 15.5753 9.39784 15.7235 9.79405C15.8716 10.1903 15.9378 10.6124 15.918 11.035M12.3535 6.49396C13.0135 6.47861 13.6694 6.6014 14.2791 6.85446C14.8889 7.10751 15.439 7.48524 15.8942 7.96339C16.3493 8.44155 16.6995 9.00958 16.9222 9.63104C17.145 10.2525 17.2353 10.9137 17.1875 11.5721" stroke="white" stroke-width="0.5" stroke-linecap="round"/>
<path fill-rule="evenodd" clip-rule="evenodd" d="M4.63867 11.3281C4.63867 6.88477 5.46875 4.15039 12.5 4.15039C19.5312 4.15039 20.3613 6.88477 20.3613 11.3281C20.3613 15.7715 19.5312 18.5059 12.5 18.5059L11.2305 18.457L8.64258 21.5332C8.44727 21.7285 8.25195 21.582 8.25195 21.3867V18.0176C7.95898 18.0176 6.73828 17.4316 6.39648 17.0898C5.32227 15.9668 4.63867 15.1367 4.63867 11.3281ZM3.17383 11.3281C3.17383 5.17578 5.85938 2.68555 12.5 2.68555C19.1406 2.68555 21.8262 5.17578 21.8262 11.3281C21.8262 17.4805 19.1406 19.9707 12.5 19.9707C12.0117 19.9707 11.6211 19.9707 10.9375 19.873L9.08203 21.9727C8.74023 22.3633 7.71484 22.5098 7.71484 21.3379V19.2871C7.42188 19.2871 6.73828 18.9941 5.81055 18.4082C4.88281 17.7734 3.17383 16.2598 3.17383 11.3281ZM14.0625 13.3789C14.388 12.9557 14.7786 12.8906 15.2344 13.1836L16.9922 14.502C17.2526 14.8275 17.1387 15.2832 16.6504 15.8691C16.1621 16.4551 15.7064 16.6992 15.2832 16.6016C13.5579 16.2109 11.8978 15.2344 10.3027 13.6719C8.70768 12.1094 7.71484 10.4167 7.32422 8.59375C7.32422 7.94271 7.73112 7.38932 8.54492 6.93359C8.9681 6.64062 9.32617 6.72201 9.61914 7.17773L10.8398 8.88672C11.0352 9.27734 10.9212 9.63542 10.498 9.96094C8.59375 10.6934 12.9883 15.4297 14.0625 13.3789Z" fill="white"/>
</g>
<defs>
<clipPath id="clip0_44478_280">
<rect width="25" height="25" fill="white"/>
</clipPath>
</defs>
</svg>
