<svg width="25" height="25" viewBox="0 0 25 25" fill="none" xmlns="http://www.w3.org/2000/svg">
<g clip-path="url(#clip0_44478_272)">
<path d="M0 11.9792C0 6.33229 0 3.50885 1.75417 1.75417C3.50833 -0.000520796 6.33229 1.83293e-10 11.9792 1.83293e-10H13.0208C18.6677 1.83293e-10 21.4917 0 23.2458 1.75417C25 3.50885 25 6.33229 25 11.9792V13.0208C25 18.6677 25 21.4917 23.2458 23.2458C21.4911 25 18.6677 25 13.0208 25H11.9792C6.33229 25 3.50885 25 1.75417 23.2458C0 21.4911 0 18.6677 0 13.0208V11.9792Z" fill="#072761"/>
<path fill-rule="evenodd" clip-rule="evenodd" d="M6.77091 7.8125H4.948C4.42716 7.8125 4.323 8.05729 4.323 8.32812C4.323 8.81094 4.94071 11.2057 7.2006 14.3729C8.70685 16.5359 10.8292 17.7083 12.7605 17.7083C13.9194 17.7083 14.0626 17.4479 14.0626 16.9995V15.3646C14.0626 14.8437 14.172 14.7396 14.5391 14.7396C14.81 14.7396 15.2735 14.875 16.3548 15.9177C17.5907 17.1536 17.7944 17.7083 18.4897 17.7083H20.3126C20.8334 17.7083 21.0938 17.4479 20.9433 16.9339C20.7792 16.4219 20.1891 15.6786 19.4058 14.7979C18.9808 14.2958 18.3433 13.7547 18.1506 13.4844C17.8798 13.137 17.9579 12.9823 18.1506 12.6734C18.1506 12.6734 20.3714 9.54479 20.6037 8.48281C20.7194 8.09635 20.6037 7.8125 20.0516 7.8125H18.2292C17.7657 7.8125 17.5522 8.05729 17.4365 8.32812C17.4365 8.32812 16.5095 10.5875 15.1964 12.0552C14.7714 12.4802 14.5782 12.6156 14.3464 12.6156C14.2308 12.6156 14.0631 12.4802 14.0631 12.0943V8.48281C14.0631 8.01927 13.9282 7.8125 13.5423 7.8125H10.6777C10.3881 7.8125 10.2141 8.0276 10.2141 8.23177C10.2141 8.67083 10.8704 8.7724 10.9381 10.0078V12.6927C10.9381 13.2812 10.8319 13.388 10.5996 13.388C9.98185 13.388 8.47873 11.1182 7.58706 8.52135C7.41206 8.01563 7.23654 7.8125 6.77091 7.8125Z" fill="white"/>
</g>
<defs>
<clipPath id="clip0_44478_272">
<rect width="25" height="25" fill="white"/>
</clipPath>
</defs>
</svg>
