<svg width="15" height="15" viewBox="0 0 15 15" fill="none" xmlns="http://www.w3.org/2000/svg">
<path d="M7.5 6.25L5 2.75L6 1.25H9L10 2.75L7.5 6.25ZM9.6875 4.25L8.9375 5.3125C10.3125 5.875 11.25 7.1875 11.25 8.75C11.25 9.74456 10.8549 10.6984 10.1517 11.4017C9.44839 12.1049 8.49456 12.5 7.5 12.5C6.50544 12.5 5.55161 12.1049 4.84835 11.4017C4.14509 10.6984 3.75 9.74456 3.75 8.75C3.75 7.1875 4.6875 5.875 6.0625 5.3125L5.3125 4.25C3.625 5.0625 2.5 6.75 2.5 8.75C2.5 10.0761 3.02678 11.3479 3.96447 12.2855C4.90215 13.2232 6.17392 13.75 7.5 13.75C8.82608 13.75 10.0979 13.2232 11.0355 12.2855C11.9732 11.3479 12.5 10.0761 12.5 8.75C12.5 6.75 11.375 5.0625 9.6875 4.25Z" fill="#072761"/>
</svg>
