<svg width="152" height="118" viewBox="0 0 152 118" fill="none" xmlns="http://www.w3.org/2000/svg">
<path d="M8.05882 104.385C6.76281 104.385 5.49036 104.208 4.24148 103.855C2.9926 103.501 1.96758 102.995 1.16641 102.335C0.388803 101.675 0 100.921 0 100.073V96.2908H0.636223C1.03681 98.6472 1.81441 100.356 2.96904 101.416C4.12366 102.453 5.71422 102.971 7.74071 102.971C9.01315 102.971 10.0971 102.653 10.9925 102.017C11.9115 101.381 12.371 100.497 12.371 99.3659C12.371 98.3762 12.0647 97.5161 11.452 96.7856C10.8393 96.0552 9.84967 95.2893 8.48297 94.4882L4.13545 91.9079C2.62736 91.0125 1.55521 90.1053 0.918988 89.1863C0.306329 88.2673 0 87.148 0 85.8285C0 84.0141 0.624441 82.5649 1.87332 81.4809C3.14577 80.3735 4.80701 79.8197 6.85706 79.8197C8.05882 79.8197 9.24879 79.9964 10.427 80.3499C11.6052 80.6798 12.5713 81.1746 13.3253 81.8344C14.1029 82.4706 14.4917 83.2129 14.4917 84.0612V87.8432H13.8555C13.4549 85.4868 12.6891 83.802 11.558 82.7887C10.4505 81.7519 8.88355 81.2335 6.85706 81.2335C5.77313 81.2335 4.8188 81.5634 3.99406 82.2232C3.16933 82.883 2.75696 83.7431 2.75696 84.8034C2.75696 85.7696 3.05151 86.5707 3.64061 87.207C4.25326 87.8432 5.26651 88.5854 6.68034 89.4337L11.0279 92.014C12.6302 92.9801 13.7613 93.8755 14.421 94.7002C15.0808 95.525 15.4107 96.5736 15.4107 97.846C15.4107 99.8254 14.7509 101.416 13.4314 102.618C12.1118 103.796 10.3209 104.385 8.05882 104.385Z" fill="#072761"/>
<path d="M20.6844 84.6974C20.6844 83.4957 20.5195 82.612 20.1896 82.0465C19.8597 81.4574 19.1999 81.1628 18.2102 81.1628H17.5033V80.4559H32.5606C34.5635 80.4559 35.5649 81.3985 35.5649 83.2836V85.9345H34.858C34.858 83.2247 33.3853 81.8698 30.4398 81.8698H23.8655V91.0596H33.4089V92.4735H23.8655V102.37H30.051C31.6769 102.37 32.9494 102.076 33.8684 101.487C34.7873 100.898 35.5178 99.8961 36.0598 98.4822L36.7667 98.659L35.5296 102.017C35.1054 103.195 34.2218 103.784 32.8787 103.784H20.6844V84.6974Z" fill="#072761"/>
<path d="M41.5328 84.6974C41.5328 83.4957 41.3679 82.612 41.038 82.0465C40.7081 81.4574 40.0483 81.1628 39.0586 81.1628H38.3517V80.4559H47.5416C49.8037 80.4559 51.842 80.939 53.6564 81.9051C55.4708 82.8712 56.378 84.7445 56.378 87.5251C56.378 89.363 55.9068 90.7769 54.9642 91.7665C54.0217 92.7562 52.9613 93.416 51.7831 93.7459C50.6285 94.0758 49.5681 94.2407 48.602 94.2407H44.714V103.784H41.5328V84.6974ZM47.3649 93.0036C48.1189 93.0036 48.9201 92.8151 49.7684 92.4381C50.6167 92.0375 51.3354 91.4131 51.9245 90.5648C52.5371 89.7165 52.8435 88.6443 52.8435 87.3483C52.8435 86.0523 52.5371 84.9802 51.9245 84.1319C51.3354 83.2836 50.6167 82.6709 49.7684 82.2939C48.9201 81.8933 48.1189 81.693 47.3649 81.693C46.5401 81.693 45.6565 81.8108 44.714 82.0465V92.6502C45.6565 92.8858 46.5401 93.0036 47.3649 93.0036Z" fill="#072761"/>
<path d="M66.337 81.8698H63.1558C60.2104 81.8698 58.7376 83.2247 58.7376 85.9345H58.0307V83.2836C58.0307 81.3985 59.0322 80.4559 61.0351 80.4559H77.4708V81.8698H69.5181V103.784H66.337V81.8698Z" fill="#072761"/>
<path d="M97.2915 103.961C96.1604 103.961 95.0412 103.654 93.9337 103.042C92.8262 102.406 91.9425 101.18 91.2827 99.3659L90.3991 97.0684H80.5023L77.6746 103.784H76.0841L85.9809 80.4559H87.0412L94.8173 99.3659C95.4064 100.733 95.9601 101.675 96.4785 102.194C96.9969 102.688 97.7392 102.983 98.7053 103.077V103.784C98.2812 103.902 97.8099 103.961 97.2915 103.961ZM81.0325 95.6546H89.6922L85.4507 85.4043L81.0325 95.6546Z" fill="#072761"/>
<path d="M117.041 104.138C115.793 104.138 114.697 103.772 113.754 103.042C112.835 102.288 111.81 100.945 110.679 99.0124L107.145 93.0036H104.67V103.784H101.489V84.6974C101.489 83.4957 101.324 82.612 100.995 82.0465C100.665 81.4574 100.005 81.1628 99.0152 81.1628H98.3082V80.4559H107.498C109.737 80.4559 111.763 80.9036 113.578 81.7991C115.416 82.6709 116.335 84.344 116.335 86.8181C116.335 89.9521 114.449 91.9551 110.679 92.8269L114.391 99.0124C115.262 100.473 116.04 101.498 116.723 102.087C117.43 102.653 118.243 102.983 119.162 103.077V103.784C118.95 103.878 118.644 103.961 118.243 104.031C117.866 104.102 117.466 104.138 117.041 104.138ZM107.321 91.7665C108.052 91.7665 108.841 91.5898 109.69 91.2364C110.561 90.8829 111.292 90.3292 111.881 89.5751C112.494 88.8211 112.8 87.9021 112.8 86.8181C112.8 85.6635 112.494 84.7092 111.881 83.9551C111.292 83.1775 110.561 82.612 109.69 82.2586C108.841 81.8815 108.052 81.693 107.321 81.693C106.497 81.693 105.613 81.8108 104.67 82.0465V91.4131C105.613 91.6487 106.497 91.7665 107.321 91.7665Z" fill="#072761"/>
<path d="M125.091 103.784C124.219 103.784 123.559 103.678 123.111 103.466C122.687 103.23 122.381 102.818 122.192 102.229C122.004 101.64 121.909 100.744 121.909 99.5426V80.4559H125.091V99.5426C125.091 100.744 125.256 101.64 125.585 102.229C125.915 102.794 126.575 103.077 127.565 103.077H128.272V103.784H125.091Z" fill="#072761"/>
<path d="M150.586 103.961C149.455 103.961 148.336 103.654 147.228 103.042C146.121 102.406 145.237 101.18 144.577 99.3659L143.694 97.0684H133.797L130.969 103.784H129.379L139.276 80.4559H140.336L148.112 99.3659C148.701 100.733 149.255 101.675 149.773 102.194C150.292 102.688 151.034 102.983 152 103.077V103.784C151.576 103.902 151.105 103.961 150.586 103.961ZM134.327 95.6546H142.987L138.745 85.4043L134.327 95.6546Z" fill="#072761"/>
<path d="M30.8723 115.927H31.7008C31.884 117.017 32.4857 117.218 33.4276 117.218C34.7533 117.218 35.0585 116.502 35.0585 115.482V112.604H31.2909V111.837H35.8609V115.482C35.8609 116.982 35.2155 117.985 33.4276 117.985C31.9712 117.985 31.0467 117.505 30.8723 115.927Z" fill="#1B3C78"/>
<path d="M41.4619 117.087V117.854H36.8658V111.837H41.4532V112.604H37.6681V114.436H41.366V115.203H37.6681V117.087H41.4619Z" fill="#1B3C78"/>
<path d="M41.8965 111.837H42.7861L44.321 116.284L45.9083 111.837H46.4577L48.0886 116.311L49.5799 111.837H50.4608L48.3503 117.854H47.8619L46.1874 113.249L44.5303 117.854H44.0332L41.8965 111.837Z" fill="#1B3C78"/>
<path d="M55.6254 117.087V117.854H51.0293V111.837H55.6167V112.604H51.8317V114.436H55.5295V115.203H51.8317V117.087H55.6254Z" fill="#1B3C78"/>
<path d="M61.1358 117.087V117.854H56.5397V111.837H57.3421V117.087H61.1358Z" fill="#1B3C78"/>
<path d="M66.9075 117.854H65.7737L62.826 115.081H64.7098C65.5819 115.081 66.0354 114.811 66.0354 113.773C66.0354 112.813 65.704 112.604 64.6923 112.604H62.5033V117.854H61.7009V111.837H64.6923C66.2185 111.837 66.8552 112.377 66.8552 113.773C66.8552 115.098 66.2011 115.726 64.8842 115.709H64.5353L66.9075 117.854Z" fill="#1B3C78"/>
<path d="M67.1735 111.837H68.1416L70.3219 115.02L72.4673 111.837H73.4092L70.7056 115.813V117.854H69.9033V115.805L67.1735 111.837Z" fill="#1B3C78"/>
<path d="M78.4903 117.985C76.5891 117.985 75.6995 117.235 75.6995 115.944C75.6995 115.124 76.1007 114.462 76.9205 114.34C76.6414 113.973 76.5106 113.651 76.5106 113.249C76.5106 112.273 77.156 111.706 78.5078 111.706C79.6852 111.706 80.5922 112.177 80.5311 113.668H79.6764C79.7288 112.63 79.1881 112.473 78.5078 112.473C77.7229 112.473 77.3653 112.7 77.3653 113.276C77.3653 113.668 77.531 113.956 78.2462 114.627L80.191 116.45C80.3393 116.127 80.4003 115.674 80.3654 115.055H81.2114C81.2375 115.918 81.098 116.563 80.8015 117.026L81.6911 117.854H80.5922L80.2695 117.558C79.8247 117.854 79.2229 117.985 78.4903 117.985ZM77.6793 115.133L77.47 114.941C76.7548 114.959 76.5368 115.447 76.5368 115.953C76.5368 116.747 77.0688 117.218 78.4903 117.218C78.97 117.218 79.3712 117.165 79.6764 117L77.6793 115.133Z" fill="#1B3C78"/>
<path d="M87.0471 117.985C85.4337 117.985 84.2912 117.505 84.2389 115.927H85.0936C85.1546 117.017 85.9831 117.218 87.0471 117.218C88.5646 117.218 88.9222 116.843 88.9222 116.188C88.9222 115.534 88.4164 115.421 87.771 115.308L85.9919 114.994C84.9453 114.811 84.4569 114.209 84.4569 113.415C84.4569 112.499 85.1285 111.706 87.082 111.706C88.6431 111.706 89.6809 112.177 89.7682 113.729H88.9309C88.835 112.665 88.0937 112.473 87.082 112.473C85.582 112.473 85.2767 112.935 85.2767 113.415C85.2767 113.869 85.5383 114.139 86.1837 114.252L88.0065 114.575C89.1577 114.776 89.7507 115.151 89.7507 116.188C89.7507 117.314 89.0356 117.985 87.0471 117.985Z" fill="#1B3C78"/>
<path d="M95.9339 111.837V112.604H93.4833V117.854H92.6809V112.604H90.2302V111.837H95.9339Z" fill="#1B3C78"/>
<path d="M99.45 117.985C97.4179 117.985 96.3539 117.287 96.3539 114.854C96.3539 112.325 97.5139 111.706 99.45 111.706C101.386 111.706 102.546 112.325 102.546 114.854C102.546 117.287 101.482 117.985 99.45 117.985ZM99.45 117.218C100.898 117.218 101.726 116.886 101.726 114.854C101.726 112.752 100.889 112.473 99.45 112.473C98.0022 112.473 97.1737 112.744 97.1737 114.854C97.1737 116.886 98.0022 117.218 99.45 117.218Z" fill="#1B3C78"/>
<path d="M103.502 111.837H103.99L108.29 116.45V111.837H109.074V117.854H108.551L104.287 113.249V117.854H103.502V111.837Z" fill="#1B3C78"/>
<path d="M114.715 117.087V117.854H110.119V111.837H114.707V112.604H110.922V114.436H114.619V115.203H110.922V117.087H114.715Z" fill="#1B3C78"/>
<path d="M118.176 117.985C116.563 117.985 115.42 117.505 115.368 115.927H116.223C116.284 117.017 117.112 117.218 118.176 117.218C119.694 117.218 120.051 116.843 120.051 116.188C120.051 115.534 119.545 115.421 118.9 115.308L117.121 114.994C116.074 114.811 115.586 114.209 115.586 113.415C115.586 112.499 116.258 111.706 118.211 111.706C119.772 111.706 120.81 112.177 120.897 113.729H120.06C119.964 112.665 119.223 112.473 118.211 112.473C116.711 112.473 116.406 112.935 116.406 113.415C116.406 113.869 116.667 114.139 117.313 114.252L119.136 114.575C120.287 114.776 120.88 115.151 120.88 116.188C120.88 117.314 120.165 117.985 118.176 117.985Z" fill="#1B3C78"/>
<g clip-path="url(#clip0_44146_711)">
<path d="M75.9143 55.9653C76.1438 55.9259 76.723 55.5669 76.9044 55.3896C78.8233 52.8681 80.9368 50.4867 82.7662 47.8974C83.3519 47.0656 84.8775 44.9841 85.1638 44.1392C85.4239 43.3753 85.4479 42.2984 85.6905 41.4317C85.9922 40.3635 86.3834 39.3261 87.3822 38.7395L86.5429 41.134C86.3069 42.6596 86.5298 44.1502 85.5638 45.47L86.7047 48.7619C86.8992 48.7838 86.7855 48.5518 86.7615 48.4446C86.6478 47.9411 86.4402 47.4574 86.3921 46.9343C86.2064 44.8768 86.6937 42.734 88.7898 41.9263C92.1993 40.6131 95.7269 43.9991 97.4645 46.5994C97.6481 46.873 97.9147 47.1773 97.9606 47.51C96.1159 45.435 91.7644 41.1296 88.7526 43.0382C85.7649 44.9294 88.1078 49.9811 89.3952 52.2793C89.9438 53.2599 90.947 54.1639 90.7524 55.3787C90.7175 55.5166 90.6257 55.5275 90.5055 55.5494C90.1011 55.6238 89.3471 55.7289 88.9406 55.7573C87.6904 55.8449 86.0512 55.5822 84.8819 55.7661C84.4076 55.8405 83.6317 56.3943 83.3629 56.8036C85.5725 56.9568 87.8718 57.2939 90.0924 57.226C90.9972 57.1976 92.5381 57.0947 93.3949 56.8802C94.5904 56.5781 94.4964 55.5231 94.4002 54.4681C94.197 52.2137 92.9774 50.5568 92.5009 48.5409C92.4266 48.2301 92.1447 46.8161 92.4856 46.6782C93.7118 49.7469 95.5324 52.7565 95.4581 56.1776C95.6766 56.4249 98.2272 54.6542 98.5289 54.4003C101.106 52.2246 102.354 49.0137 101.517 45.6714C101.274 44.7083 100.649 43.8393 100.983 42.8128C101.589 43.3228 102.006 44.0692 102.544 44.6426C104.585 46.8205 106.478 47.6588 107.37 50.8763C109.109 57.1582 104.292 61.3935 98.7103 62.8271C88.1253 65.5456 77.0836 60.2969 66.3172 61.0849C61.6925 61.4219 55.5662 62.7834 52.9391 67.0034C51.4179 69.446 51.7326 71.0395 52.1632 73.6923C52.1806 73.8018 52.2724 74.0556 52.0867 74.0316C49.2475 68.8201 51.3807 63.1773 56.0973 60.0386C58.0425 58.745 60.2871 57.9374 62.5121 57.2742L52.7183 44.2377C54.0231 42.8434 55.446 41.5696 56.8448 40.2716C57.3496 39.8032 58.2501 38.7438 58.8031 38.4221C59.356 38.1003 60.5297 38.2667 61.1548 38.2207C61.1941 37.6254 61.3034 36.4653 61.7274 36.0275C62.0749 35.6686 64.6649 34.3225 65.1982 34.178C65.8123 34.0117 66.3456 33.9854 66.9773 34.1102C68.6318 34.4385 71.2152 35.3578 72.9112 35.894C73.591 36.1085 74.2641 36.3646 74.9155 36.6535C73.8183 34.4232 73.1604 32.0374 73.5888 29.529C74.4958 24.219 80.9565 21.6581 81.8723 17.6723C82.3007 15.8118 80.9259 13.9754 78.937 14.6299C78.2485 14.8553 78.1764 15.4135 77.7371 15.8294C76.7273 16.7815 75.1952 16.4947 73.9363 16.8253C73.2588 17.0026 71.1693 17.9569 70.848 18.5347C70.6885 18.8214 70.7934 19.0447 70.7038 19.3314C68.9793 19.6685 67.7641 18.8915 67.622 17.0792C67.4996 15.4945 68.3892 15.5645 69.1848 14.4701C70.1202 13.1853 69.8885 12.6534 70.1683 11.2789C70.5508 9.40525 73.7746 7.38499 75.1755 6.16583C77.1186 4.47827 78.6703 2.46677 79.5052 0.00875449C79.6845 -0.017511 79.6167 0.256088 79.6058 0.372094C79.4987 1.6985 78.7971 3.40139 78.1655 4.56801L76.3754 7.4222C79.9948 5.81125 83.0459 3.43859 85.2359 0.113817C84.6699 1.6788 83.8634 3.24817 82.882 4.59428C82.0996 5.66898 81.1051 6.59265 80.2833 7.63013C80.2003 7.7352 80.0822 7.76365 80.1281 7.94313C80.6396 7.82275 81.2231 7.68485 81.7433 7.63013C82.6635 7.53383 83.6186 7.49662 84.53 7.6564C84.6764 7.68266 86.379 8.10948 86.1736 8.25613C85.4982 8.25613 84.5693 8.40278 84.0885 8.88212C86.3266 9.56941 88.2171 11.0687 90.3437 12.0165C90.3525 12.1697 89.97 12.2003 89.8629 12.2113C89.4913 12.2507 89.1241 12.2222 88.7548 12.1981C88.6368 12.1894 88.5493 11.988 88.5734 12.2748C89.2553 12.8898 89.605 13.7522 90.1121 14.492C90.8661 15.5908 91.9502 16.6261 92.219 17.9656L90.4486 16.8165L91.489 22.6628L90.3437 21.5137C90.1317 23.3369 89.3383 25.2258 87.8412 26.3159C88.1144 25.0573 88.8029 23.941 89.1438 22.6606C90.4464 17.7642 89.2771 12.6053 84.6109 10.0772C84.224 9.86708 82.7312 9.18418 82.3771 9.19512C81.7236 9.21701 80.6374 10.0947 80.126 10.4975L82.3837 11.4693L83.5639 12.22L83.5115 12.4302C83.4153 12.4192 83.3323 12.3229 83.306 12.3229H81.221L78.8758 12.9489L79.8484 12.2003L81.2734 11.6991L79.761 11.3773L77.5207 11.9596C78.4321 10.9396 79.4528 9.95026 80.6155 9.21263L82.316 8.359C80.2112 8.45093 78.3993 9.6285 76.3733 10.0269C78.0409 8.75736 79.549 7.29744 80.9609 5.74777L79.3654 6.81153C77.6344 7.83588 75.6411 8.44218 74.1308 9.81893L74.4412 8.98281L75.7984 6.68895C74.3712 8.05038 72.5178 8.96968 71.425 10.6616C70.8436 11.5634 71.0622 11.64 70.9398 12.5768C70.8349 13.3779 70.059 14.6255 69.5432 15.2493C69.1869 15.6805 68.4919 16.0679 68.4416 16.6589C68.3804 17.3746 68.6908 18.6113 69.6241 18.4669C69.8295 18.434 71.1802 17.228 71.5824 16.9785C73.2544 15.9497 74.3078 16.0307 76.0848 15.6389C77.56 15.315 77.4726 13.7456 79.3435 13.5771C81.669 13.367 83.2689 15.2252 83.0438 17.4907C82.7115 20.8264 77.0115 24.462 75.3591 27.7539C73.532 31.3961 75.0007 35.8371 77.6191 38.6891C77.9994 39.105 78.4955 39.3589 78.7687 39.8864C77.3612 39.7988 76.5809 38.5534 75.464 37.923C73.6281 36.8877 69.8273 35.8721 67.692 35.2658C67.2855 35.1498 66.5751 34.8959 66.1883 34.8828C65.5719 34.8631 63.0104 36.0626 62.4662 36.4565C61.9722 36.8155 61.8345 37.888 62.1624 38.3958C62.2301 38.4987 62.1536 38.5797 62.3962 38.5293C62.4705 37.5685 62.5317 36.6579 63.6486 36.4412C63.4082 36.8921 63.0585 37.1591 63.1306 37.7348C63.1546 37.9362 63.7469 39.0787 63.9611 38.8401C63.9065 38.409 63.7295 37.6779 63.9109 37.2773C64.0398 36.9928 65.4736 35.8196 65.7337 36.0232C65.1545 37.076 64.1622 37.5225 65.0059 38.8401C65.2812 38.8686 65.1742 38.8467 65.2113 38.6847C65.3643 38.0084 65.2703 37.8355 65.8364 37.3255C66.2844 36.9228 66.8942 36.6535 67.504 36.6492C67.5346 36.8133 67.4865 36.8899 67.4057 37.0191C67.2833 37.2117 66.6494 37.5356 66.7762 37.691C67.9564 38.6125 69.2875 37.5006 70.4284 37.8442C70.7737 37.9493 72.5419 39.1006 72.9593 39.383C75.1187 40.8451 76.9634 43.1017 79.5992 43.6445C79.5533 43.3053 79.6867 42.9879 79.7085 42.6574C79.8659 40.346 78.9807 38.1441 79.184 35.8678C79.4244 33.1777 81.6843 30.5906 83.5596 28.8177C83.5967 28.9949 83.47 29.0934 83.3935 29.2248C82.3575 31.0458 80.8887 32.6305 80.3598 34.7471C79.7588 37.1482 80.5959 38.7986 80.7445 41.0858C80.9893 44.8571 79.5905 48.5256 77.6606 51.673C77.2847 52.2859 76.1787 53.9953 75.6892 54.3981C74.3188 55.5297 71.519 54.0895 70.424 55.8077C70.4043 56.0747 70.4612 55.9237 70.6054 55.8843C71.5824 55.6151 72.9287 54.5601 73.8642 55.545C73.4598 55.5647 72.8457 55.5844 72.614 55.9631C73.6085 55.8471 74.9504 56.1207 75.899 55.9631L75.9143 55.9653ZM61.8411 39.0503C61.3275 38.9058 60.1931 39.1575 59.5986 39.0503C59.5593 39.3808 59.7494 41.6462 59.9636 41.6571L63.3513 39.5187L62.7787 39.0525C62.5776 39.1663 62.6563 39.7485 62.3634 39.6763C62.2214 39.5537 61.9963 39.094 61.8411 39.0503ZM69.9191 39.0503H65.8539C65.8189 39.2341 65.9479 39.3085 66.0615 39.418C66.3588 39.7069 69.4274 41.6615 69.659 41.6615L69.9213 39.0503H69.9191ZM75.3416 43.9554L70.5464 39.3633C70.4437 39.4683 70.2863 41.6462 70.3388 41.9198C70.4393 42.4451 72.3626 43.7255 72.8347 44.1239L75.3416 43.9575V43.9554ZM58.9736 39.4683L54.1783 43.9554L56.7114 44.1436C56.9606 44.0867 58.943 42.3816 59.085 42.1365C59.4413 41.5148 58.9189 40.195 58.9736 39.4683ZM65.4364 40.0943L64.3414 39.4858L60.9537 41.8651L64.8201 44.2224L68.564 41.8651L65.4889 39.7791L65.4364 40.0921V40.0943ZM69.27 56.0419C69.5345 55.44 70.5442 54.3171 71.1671 54.1311C72.3495 53.7808 73.9429 54.6914 75.1843 53.562C76.5459 52.3231 79.1621 47.1532 79.3807 45.3387C79.4025 45.157 79.4615 44.9622 79.3566 44.7893C79.2976 44.6908 77.6212 44.0298 77.2868 43.8328C76.2749 43.2374 75.2695 42.2941 74.3472 41.5542L74.192 41.6046L76.7842 44.3012L68.1859 56.055L68.1466 56.2739L69.2678 56.0397L69.27 56.0419ZM63.6639 44.3734L60.3636 42.2021C60.0642 42.1715 58.1605 43.7824 57.8261 44.1129L63.6639 44.3734ZM71.7966 44.1655C71.0403 43.3578 70.0787 42.7493 69.1389 42.1846L65.8539 44.3756L71.7966 44.1677V44.1655ZM56.6568 44.8155L54.0734 44.6361L62.2039 55.3371C61.0564 51.4958 58.5889 48.2695 56.6568 44.8155ZM75.3416 44.5835L72.8326 44.8615C70.8087 48.3417 68.4329 51.6643 67.2111 55.545L75.3416 44.5835ZM57.4108 44.7937L61.393 51.6118C61.7886 52.4501 62.1493 53.3037 62.4924 54.1639C62.6607 54.5819 63.3907 56.9393 63.6224 56.9896L64.2955 56.8561L64.3502 45.1001L57.4108 44.7937ZM65.019 45.157V56.6941L66.2779 56.4162C67.41 52.1458 69.9454 48.6109 72.1091 44.844C72.1091 44.7368 70.1814 44.7805 69.9672 44.7871C68.9422 44.8177 67.8734 44.9469 66.8483 45.0038C66.5074 45.0235 65.1042 44.8812 65.019 45.157ZM52.091 66.9267C54.4974 62.4091 60.298 60.7522 65.0736 60.2465C75.4903 59.1412 85.1988 63.5407 95.2942 62.4266C100.142 61.8925 106.095 59.3666 106.605 53.8115C106.93 50.2656 105.025 48.1972 102.553 46.0457C103.86 51.7606 99.0163 56.7576 93.7118 57.8126C87.9155 58.9639 81.0068 57.1253 75.0837 56.8999C67.8319 56.6241 54.1411 57.8564 52.032 66.6094C52.0058 66.7144 51.8943 66.9508 52.0889 66.9267H52.091ZM85.037 47.2976C84.86 47.2933 84.8097 47.2429 84.8338 47.4487C84.9343 48.3461 86.0075 49.841 86.6019 50.5349L85.037 47.2976ZM89.3121 54.7111C88.0576 53.7152 86.7484 52.8287 85.66 51.6358C84.7923 50.6815 84.1475 49.5762 83.3716 48.554L77.4267 56.1754L80.5828 56.4731C81.0177 56.1907 81.2122 55.7354 81.6056 55.4027C82.9826 54.2427 84.3486 54.8534 85.92 54.9278C87.0587 54.9825 88.1909 54.8862 89.3121 54.7133V54.7111ZM81.7018 56.5891C82.2744 56.7948 82.823 56.2542 83.2361 55.8821C83.3497 55.7792 83.5268 55.7683 83.4721 55.545C82.6591 55.6479 82.1608 55.893 81.7018 56.5891Z" fill="#072761"/>
<path d="M110.37 53.041C110.198 53.0695 110.257 52.7849 110.263 52.6733C110.515 48.7357 111.249 42.5764 107.815 39.6806C104.841 37.1723 101.927 39.6018 99.8445 41.8694C99.9691 40.2453 100.371 38.873 99.7899 37.2773C99.1626 35.5548 97.6742 35.1717 96.0066 35.6773C94.2647 36.2048 93.2484 37.8486 91.3993 38.2141C91.6616 37.61 92.1643 37.2336 92.4943 36.6492C94.9094 32.3876 90.6475 29.993 87.4608 33.4907C87.4084 33.5498 87.3778 33.8015 87.2772 33.517C87.0587 32.8976 88.4771 31.639 88.9951 31.3698C91.2704 30.1857 94.0964 31.4814 94.1095 34.1955C94.1117 34.6814 93.8647 35.2243 93.8494 35.708C99.0796 30.2688 101.742 22.4351 100.336 14.9101L100.054 13.7828C100.19 19.651 96.2864 26.0663 90.4617 27.616C88.7941 28.0603 87.1745 28.1741 85.5637 27.4584C85.6664 27.2724 86.0948 27.1432 86.2915 27.0929C87.4543 26.793 88.6061 26.8083 89.8147 26.445C95.4755 24.7399 98.8632 18.631 98.6009 12.892C98.5135 10.9768 98.142 9.43807 96.1968 8.72234L94.5313 8.25175C95.3684 8.1248 97.3267 7.31057 98.0895 7.47035C98.3212 7.5185 98.8523 8.02849 99.1277 8.18827C101.309 9.45777 103.029 10.3289 104.959 12.0581C115.4 21.4195 117.701 37.8508 111.824 50.3619C111.391 51.2834 110.832 52.1305 110.377 53.0388L110.37 53.041ZM109.223 39.6763C109.601 34.2656 109.105 28.7936 107.63 23.5755C106.406 19.2461 104.38 15.0939 101.3 11.7998C101.766 12.8548 102.386 13.8463 102.832 14.9101C105.905 22.2535 105.894 31.2166 102.445 38.4221C102.819 38.4002 103.071 38.1266 103.431 38.0018C105.759 37.192 107.593 37.9821 109.221 39.6763H109.223ZM111.518 48.2366C113.406 42.6268 114.173 36.636 113.275 30.7657C112.169 23.5536 108.528 16.6129 102.765 12.1106L105.597 16.4247C108.882 22.6059 110.141 29.7216 110.172 36.7017L109.855 40.6547C110.375 41.7797 110.794 42.9441 111.057 44.1589L111.52 48.2344L111.518 48.2366ZM101.093 39.2582C104.24 32.8779 104.891 25.5498 103.044 18.6682C102.509 16.6698 101.665 14.7787 100.728 12.9467C100.804 13.8923 101.149 14.7853 101.287 15.7287C101.683 18.4187 101.602 21.3582 101.04 24.0176C100.194 28.0297 98.2578 31.7309 95.67 34.874C97.6436 34.1036 99.5386 34.6398 100.485 36.5769L101.088 39.2582H101.093Z" fill="#072761"/>
<path d="M65.4364 9.29361C65.6156 9.45339 64.7501 10.0312 64.6517 10.1254C63.4256 11.2985 63.0453 11.9442 63.1393 13.7347C63.4103 18.9856 68.7323 24.7596 73.5253 26.515C73.6215 26.6507 73.1101 27.8086 72.9942 27.9793C72.8784 28.1501 72.8828 28.0384 72.7713 27.999C72.3801 27.859 71.7593 27.5153 71.379 27.303C67.6438 25.228 63.7381 21.0868 62.4136 16.9653L61.7907 14.6146C61.6377 15.3566 61.4629 16.1183 61.3864 16.8712C60.9252 21.3911 61.6203 27.1279 63.5764 31.2516C63.9479 32.033 64.4266 32.6327 64.82 33.3485C65.008 33.6899 64.4878 33.9263 64.2823 33.8803C64.0266 33.8256 63.1546 33.0289 62.7327 32.8275C59.4652 31.2713 57.5047 34.0401 56.2786 36.6054C56.0994 36.984 55.9748 37.5378 55.7694 37.8661C55.7016 37.9734 55.7759 38.0478 55.5355 37.9996C55.1814 36.0407 54.4842 33.4579 52.7139 32.3153C49.0311 29.9405 44.4938 35.4037 42.9398 38.2798L40.2078 43.9575C40.2121 41.3966 40.87 38.8883 41.6372 36.4631C44.4479 27.5657 50.478 19.2942 57.673 13.4742C59.933 11.6466 62.0618 10.0991 64.938 9.36803C65.1041 9.32644 65.2593 9.26735 65.4385 9.2958L65.4364 9.29361ZM55.1159 33.5148C54.9847 32.8822 54.9891 32.2278 55.0088 31.5799C55.1639 26.0707 56.4884 20.5462 59.0434 15.6783L60.4335 13.3648C55.3825 18.0904 51.632 24.2912 49.9054 31.0108C52.1806 30.5709 53.6646 31.5909 54.8842 33.3813C54.9476 33.4754 54.8689 33.5739 55.1159 33.517V33.5148ZM63.1415 32.1599C62.7459 31.3129 62.3415 30.4571 62.0224 29.575C60.5165 25.4075 60.0794 20.7651 60.6717 16.3722L61.2159 13.8879C58.768 17.8605 57.0239 22.3935 56.2939 27.0207C55.8612 29.7632 55.8153 32.416 55.953 35.187C56.4797 34.5173 56.8622 33.714 57.4588 33.0946C58.9888 31.5099 61.1875 30.9867 63.1458 32.1599H63.1415ZM57.5135 15.2449C56.9627 15.4813 56.401 16.0285 55.9486 16.4422C49.7086 22.1637 44.791 29.6757 42.2928 37.7961C42.9857 36.8264 43.5321 35.7605 44.2752 34.8237C45.5472 33.2215 47.1755 31.8054 49.1229 31.1159C50.6288 25.2674 53.4832 19.7298 57.5135 15.2449Z" fill="#072761"/>
<path d="M75.5491 11.0687C75.3152 11.4802 74.6246 11.6772 74.3558 12.0143C74.1678 12.2529 74.1765 12.5812 74.0301 12.8351C73.6279 13.5246 72.2969 13.4151 71.7986 14.2009C71.9603 13.7194 72.1199 13.0474 72.345 12.6074C72.8368 11.6509 74.5372 11.1738 75.5513 11.0687H75.5491Z" fill="#072761"/>
<path d="M70.1288 16.1839C70.1791 16.2343 69.8031 17.1383 69.5562 17.1207C69.1081 16.6348 69.5977 16.2124 70.1288 16.1839Z" fill="#072761"/>
</g>
<defs>
<clipPath id="clip0_44146_711">
<rect width="74.7787" height="74.0272" fill="white" transform="translate(40.2078)"/>
</clipPath>
</defs>
</svg>
